<svg width="128" height="128" viewBox="0 0 128 128" fill="none" xmlns="http://www.w3.org/2000/svg">
<g clip-path="url(#clip0_1299_7)">
<path fill-rule="evenodd" clip-rule="evenodd" d="M18 30.7143C18 19.8304 26.8304 11 37.7143 11H96.8571H103.429C107.063 11 110 13.9366 110 17.5714V83.2857C110 86.9205 107.063 89.8571 103.429 89.8571V103C107.063 103 110 105.937 110 109.571C110 113.206 107.063 116.143 103.429 116.143H96.8571H37.7143C26.8304 116.143 18 107.312 18 96.4286V30.7143ZM90.2857 89.8571H37.7143C34.0795 89.8571 31.1429 92.7938 31.1429 96.4286C31.1429 100.063 34.0795 103 37.7143 103H90.2857V89.8571ZM64.7459 24C65.899 24 66.949 24.6562 67.4459 25.6875L73.474 38.0906L86.9459 40.0781C88.0709 40.2469 88.999 41.0344 89.3553 42.1125C89.7115 43.1906 89.4209 44.3812 88.6147 45.1781L78.8459 54.8438L81.1615 68.5031C81.349 69.6281 80.8803 70.7625 79.9522 71.4375C79.024 72.1125 77.7959 72.1875 76.7834 71.6531L64.7553 65.2312L52.7272 71.6531C51.7147 72.1875 50.4865 72.1031 49.5584 71.4375C48.6303 70.7719 48.1615 69.6281 48.349 68.5031L50.6553 54.8438L40.8865 45.1781C40.0803 44.3812 39.799 43.1906 40.1459 42.1125C40.4928 41.0344 41.4303 40.2469 42.5553 40.0781L56.0178 38.0906L62.0459 25.6875C62.5522 24.6562 63.5928 24 64.7459 24Z" fill="black"/>
</g>
<defs>
<clipPath id="clip0_1299_7">
<rect width="92" height="105.143" fill="white" transform="translate(18 11)"/>
</clipPath>
</defs>
</svg>
