<svg width="128" height="128" viewBox="0 0 128 128" fill="none" xmlns="http://www.w3.org/2000/svg">
<g clip-path="url(#clip0_1299_5)">
<path d="M37.7143 11C26.8304 11 18 19.8304 18 30.7143V96.4286C18 107.313 26.8304 116.143 37.7143 116.143H96.8571H103.429C107.063 116.143 110 113.206 110 109.571C110 105.937 107.063 103 103.429 103V89.8571C107.063 89.8571 110 86.9205 110 83.2857V17.5714C110 13.9366 107.063 11 103.429 11H96.8571H37.7143ZM37.7143 89.8571H90.2857V103H37.7143C34.0795 103 31.1429 100.063 31.1429 96.4286C31.1429 92.7938 34.0795 89.8571 37.7143 89.8571ZM44.2857 40.5714C44.2857 38.7643 45.7643 37.2857 47.5714 37.2857H87C88.8071 37.2857 90.2857 38.7643 90.2857 40.5714C90.2857 42.3786 88.8071 43.8571 87 43.8571H47.5714C45.7643 43.8571 44.2857 42.3786 44.2857 40.5714ZM47.5714 50.4286H87C88.8071 50.4286 90.2857 51.9071 90.2857 53.7143C90.2857 55.5214 88.8071 57 87 57H47.5714C45.7643 57 44.2857 55.5214 44.2857 53.7143C44.2857 51.9071 45.7643 50.4286 47.5714 50.4286Z" fill="black"/>
</g>
<defs>
<clipPath id="clip0_1299_5">
<rect width="92" height="105.143" fill="white" transform="translate(18 11)"/>
</clipPath>
</defs>
</svg>
