<svg width="128" height="128" viewBox="0 0 128 128" fill="none" xmlns="http://www.w3.org/2000/svg">
<path d="M117.301 71.1039C120.843 71.1039 123.969 68.1781 123.969 64.3955C124.177 62.5146 123.343 60.8428 121.677 59.3799L110.676 49.6621V24.375C110.676 20.676 107.696 17.6875 104.009 17.6875H97.3413C93.6535 17.6875 90.674 20.676 90.674 24.375V32.0447L68.4847 12.4629C67.2345 11.418 65.5677 11 64.1093 11C62.6508 11 60.984 11.209 59.5256 12.6719L6.08351 59.3799C4.62505 60.8428 4 62.5146 4 64.3955C4 68.1572 6.91691 71.1039 10.6672 71.1039H17.3345V85.6701C17.3136 85.8582 17.3136 86.0463 17.3136 86.2553V109.641C17.3136 114.259 21.0431 118 25.6477 118H28.9813C29.2313 118 29.4813 117.979 29.7314 117.958C30.0439 117.979 30.3564 118 30.6689 118H37.3362H42.3366C46.9412 118 50.6706 114.259 50.6706 109.641V104.625V91.25C50.6706 87.551 53.6501 84.5625 57.3379 84.5625H70.6723C74.3602 84.5625 77.3396 87.551 77.3396 91.25V104.625V109.641C77.3396 114.259 81.0691 118 85.6736 118H90.674H97.4455C97.7371 118 98.0288 118 98.3205 117.979C98.5497 118 98.7789 118 99.0081 118H102.342C106.946 118 110.676 114.259 110.676 109.641V106.255C110.738 105.712 110.78 105.147 110.78 104.562L110.634 71.083H117.301V71.1039Z" fill="black"/>
</svg>
